{"title":"22 Jump Street (2014) CAMRip [RUS]","uid":10626269,"size":738582528,"categoryP":"video","categoryS":"movies","magnet":"?xt=urn:btih:b001bca8371a9bd3dbb8875d31c6b02f8fd00d52&amp;dn=22+Jump+Street+%282014%29+CAMRip+%5BRUS%5D&amp;tr=udp%3A%2F%2Ftracker.openbittorrent.com%3A80&amp;tr=udp%3A%2F%2Fopen.demonii.com%3A1337&amp;tr=udp%3A%2F%2Ftracker.coppersurfer.tk%3A6969&amp;tr=udp%3A%2F%2Fexodus.desync.com%3A6969","seeders":27,"leechers":1,"uploader":"yfjfrj","files":1,"time":1406237313,"description":"22 Jump Street (2014) CAMRip [RUS]\n\nMI:\nGeneral\nComplete name                            : D:moviesMa40.i.B07an.2.2014.D.CAMRip.700MB.avi\nFormat                                   : AVI\nFormat/Info                              : Audio Video Interleave\nFile size                                : 704 MiB\nDuration                                 : 1h 40mn\nOverall bit rate                         : 984 Kbps\nWriting application                      : VirtualDubMod 1.5.10.2 (build 2540/release)\nWriting library                          : VirtualDubMod build 2540/release\n\nVideo\nID                                       : 0\nFormat                                   : MPEG-4 Visual\nFormat profile                           : Advanced Simple@L5\nFormat settings, BVOP                    : 2\nFormat settings, QPel                    : No\nFormat settings, GMC                     : No warppoints\nFormat settings, Matrix                  : Default (MPEG)\nCodec ID                                 : XVID\nCodec ID/Hint                            : XviD\nDuration                                 : 1h 40mn\nBit rate                                 : 847 Kbps\nWidth                                    : 720 pixels\nHeight                                   : 320 pixels\nDisplay aspect ratio                     : 2.25:1\nFrame rate                               : 23.976 fps\nColor space                              : YUV\nChroma subsampling                       : 4:2:0\nBit depth                                : 8 bits\nScan type                                : Progressive\nCompression mode                         : Lossy\nBits/(Pixel*Frame)                       : 0.153\nStream size                              : 606 MiB (86%)\nWriting library                          : XviD 73\n\nAudio\nID                                       : 1\nFormat                                   : MPEG Audio\nFormat version                           : Version 1\nFormat profile                           : Layer 3\nMode                                     : Joint stereo\nMode extension                           : MS Stereo\nCodec ID                                 : 55\nCodec ID/Hint                            : MP3\nDuration                                 : 1h 40mn\nBit rate mode                            : Constant\nBit rate                                 : 128 Kbps\nChannel(s)                               : 2 channels\nSampling rate                            : 48.0 KHz\nCompression mode                         : Lossy\nStream size                              : 91.6 MiB (13%)\nAlignment                                : Aligned on interleaves\nInterleave, duration                     : 42 ms (1.00 video frame)\nInterleave, preload duration             : 504 ms\n\n\nScreens: &lt;a href=&quot;\nhttp://i6.imageban.ru/out/2014/07/24/46ec8c33a3b60b8a9f58e3f5bdf0060a.png&quot; rel=&quot;nofollow&quot; target=&quot;_NEW&quot;&gt;\nhttp://i6.imageban.ru/out/2014/07/24/46ec8c33a3b60b8a9f58e3f5bdf0060a.png&lt;/a&gt; &lt;a href=&quot;\nhttp://i4.imageban.ru/out/2014/07/24/b2ec558d0682902cd6e73c3df8599f65.png&quot; rel=&quot;nofollow&quot; target=&quot;_NEW&quot;&gt;\nhttp://i4.imageban.ru/out/2014/07/24/b2ec558d0682902cd6e73c3df8599f65.png&lt;/a&gt; &lt;a href=&quot;\nhttp://i5.imageban.ru/out/2014/07/24/59c8914896c44c7c5c9db45b8cc87f9b.png&quot; rel=&quot;nofollow&quot; target=&quot;_NEW&quot;&gt;\nhttp://i5.imageban.ru/out/2014/07/24/59c8914896c44c7c5c9db45b8cc87f9b.png&lt;/a&gt; &lt;a href=&quot;\nhttp://i4.imageban.ru/out/2014/07/24/988b9f050696c5289c192268b59c79a4.png&quot; rel=&quot;nofollow&quot; target=&quot;_NEW&quot;&gt;\nhttp://i4.imageban.ru/out/2014/07/24/988b9f050696c5289c192268b59c79a4.png&lt;/a&gt;","torrent":{"xt":"urn:btih:b001bca8371a9bd3dbb8875d31c6b02f8fd00d52","amp;dn":"22+Jump+Street+%282014%29+CAMRip+%5BRUS%5D","amp;tr":["udp%3A%2F%2Ftracker.openbittorrent.com%3A80","udp%3A%2F%2Fopen.demonii.com%3A1337","udp%3A%2F%2Ftracker.coppersurfer.tk%3A6969","udp%3A%2F%2Fexodus.desync.com%3A6969"],"infoHash":"b001bca8371a9bd3dbb8875d31c6b02f8fd00d52","infoHashBuffer":{"type":"Buffer","data":[176,1,188,168,55,26,155,211,219,184,135,93,49,198,176,47,143,208,13,82]},"announce":[],"urlList":[]}}